<svg width="14" height="13" viewBox="0 0 14 13" fill="none" xmlns="http://www.w3.org/2000/svg">
<path d="M6.18381 1.15298C6.58233 0.590023 7.41768 0.590024 7.81619 1.15298L9.31421 3.26914C9.4411 3.44838 9.62345 3.58087 9.83312 3.64615L12.3086 4.41693C12.9672 4.62198 13.2253 5.41644 12.8131 5.96942L11.2634 8.04805C11.1321 8.22411 11.0625 8.43848 11.0652 8.65807L11.0971 11.2506C11.1056 11.9403 10.4298 12.4313 9.77648 12.2101L7.3207 11.3786C7.1127 11.3082 6.8873 11.3082 6.6793 11.3786L4.22352 12.2101C3.57022 12.4313 2.8944 11.9403 2.9029 11.2506L2.93482 8.65806C2.93752 8.43848 2.86787 8.22411 2.73661 8.04805L1.18694 5.96942C0.774681 5.41644 1.03282 4.62198 1.69138 4.41693L4.16688 3.64615C4.37655 3.58087 4.5589 3.44838 4.68579 3.26914L6.18381 1.15298Z" fill="#E87C3E"/>
</svg>
