<svg width="14" height="13" viewBox="0 0 14 13" fill="none" xmlns="http://www.w3.org/2000/svg">
<path d="M7.4081 1.44187L8.90612 3.55803C9.09644 3.82689 9.36997 4.02562 9.68448 4.12355L12.16 4.89432C12.4893 4.99685 12.6183 5.39408 12.4122 5.67057L10.8625 7.7492C10.6656 8.01329 10.5612 8.33484 10.5652 8.66422L10.5971 11.2567C10.6014 11.6016 10.2635 11.8471 9.93683 11.7365L7.48106 10.905C7.16905 10.7994 6.83095 10.7994 6.51894 10.905L4.06317 11.7365C3.73652 11.8471 3.39861 11.6016 3.40286 11.2567L3.43478 8.66422C3.43884 8.33484 3.33436 8.01329 3.13747 7.7492L1.5878 5.67057C1.38167 5.39408 1.51074 4.99685 1.84002 4.89432L4.31552 4.12355C4.63003 4.02562 4.90356 3.82689 5.09388 3.55803L6.5919 1.44187C6.79116 1.16039 7.20884 1.16039 7.4081 1.44187Z" stroke="#E87C3E"/>
</svg>
