<svg width="131" height="20" viewBox="0 0 131 20" fill="none" xmlns="http://www.w3.org/2000/svg">
<path d="M0 19.25V0H16.5V2.75H19.25V11H13.75V13.75H16.5V16.5H19.25V19.25H11V16.5H8.25V13.75H5.5V19.25H0ZM5.5 11H11V8.25H13.75V2.75H5.5V11ZM22.2 19.25V0H41.45V2.75H27.7V8.25H38.7V11H27.7V16.5H41.45V19.25H22.2ZM44.4 19.25V5.5H47.15V2.75H49.9V0H58.15V2.75H60.9V5.5H63.65V19.25H58.15V13.75H49.9V19.25H44.4ZM49.9 11H58.15V5.5H55.4V2.75H52.65V5.5H49.9V11ZM66.6 19.25V0H80.35V2.75H83.1V5.5H85.85V13.75H83.1V16.5H80.35V19.25H66.6ZM72.1 16.5H77.6V13.75H80.35V5.5H77.6V2.75H72.1V16.5ZM91.55 19.25V16.5H88.8V0H94.3V11H97.05V0H99.8V11H102.55V0H108.05V16.5H105.3V19.25H102.55V16.5H99.8V13.75H97.05V16.5H94.3V19.25H91.55ZM111 19.25V0H130.25V2.75H116.5V8.25H127.5V11H116.5V16.5H130.25V19.25H111Z" fill="black"/>
</svg>
