<svg width="15" height="15" viewBox="0 0 15 15" fill="none" xmlns="http://www.w3.org/2000/svg">
<path d="M10.4584 11.6538L10.3485 12.1416L10.4584 11.6538ZM8.72969 11.476L8.54556 11.0111L8.72969 11.476ZM9.38863 11.4128L9.27871 11.9005L9.38863 11.4128ZM11.476 8.72992L11.9408 8.91409L11.476 8.72992ZM10.0324 3.8154C11.3106 5.09361 11.6378 6.96397 11.0111 8.54575L11.9408 8.91409C12.7092 6.97481 12.3097 4.6785 10.7395 3.10829L10.0324 3.8154ZM3.81554 3.8154C5.53227 2.09866 8.31565 2.09866 10.0324 3.8154L10.7395 3.10829C8.63224 1.00103 5.21569 1.00103 3.10843 3.10829L3.81554 3.8154ZM3.81554 10.0323C2.0988 8.31552 2.0988 5.53214 3.81554 3.8154L3.10843 3.10829C1.00117 5.21555 1.00117 8.6321 3.10843 10.7394L3.81554 10.0323ZM8.54556 11.0111C6.96385 11.6377 5.09366 11.3104 3.81554 10.0323L3.10843 10.7394C4.67852 12.3095 6.97463 12.709 8.91382 11.9409L8.54556 11.0111ZM10.5683 11.1661L9.49855 10.925L9.27871 11.9005L10.3485 12.1416L10.5683 11.1661ZM10.925 9.49886L11.166 10.5684L12.1415 10.3485L11.9005 9.27902L10.925 9.49886ZM10.3485 12.1416C11.4233 12.3838 12.3837 11.4234 12.1415 10.3485L11.166 10.5684C11.2467 10.9267 10.9266 11.2468 10.5683 11.1661L10.3485 12.1416ZM8.91382 11.9409C9.04805 11.8877 9.17401 11.8769 9.27871 11.9005L9.49855 10.925C9.16309 10.8494 8.83083 10.8981 8.54556 11.0111L8.91382 11.9409ZM11.0111 8.54575C10.8981 8.83105 10.8494 9.16335 10.925 9.49886L11.9005 9.27902C11.8769 9.1743 11.8876 9.04833 11.9408 8.91409L11.0111 8.54575Z" fill="#D9D9D9"/>
<circle cx="4.96174" cy="7.19612" r="0.500803" fill="#D9D9D9"/>
<circle cx="9.25276" cy="7.19612" r="0.500803" fill="#D9D9D9"/>
<circle cx="7.18147" cy="7.19612" r="0.500803" fill="#D9D9D9"/>
</svg>
