<svg width="203" height="22" viewBox="0 0 203 22" fill="none" xmlns="http://www.w3.org/2000/svg">
<path d="M189.12 4H202M189.12 10.48H202M189.12 16.96H202M184 4V4.0128M184 10.48V10.4928M184 16.96V16.9728" stroke="#E87C3E" stroke-width="2" stroke-linecap="round" stroke-linejoin="round"/>
<path d="M116.171 1V20.2M125.086 9.22857H120.286M125.086 5.11429H120.286M112.743 5.11429H110M112.743 9.22857H110M112.743 13.3429H110M114.114 20.2H126.457C127.972 20.2 129.2 18.972 129.2 17.4571V3.74286C129.2 2.22802 127.972 1 126.457 1H114.114C112.599 1 111.371 2.22802 111.371 3.74286V17.4571C111.371 18.972 112.599 20.2 114.114 20.2Z" stroke="#E87C3E" stroke-width="2" stroke-linecap="round"/>
<path d="M164.94 6.25H148.06M159 10C156.925 10 154 10 154 10M165 6.75164V16.875C165 18.0486 164.049 19 162.875 19H150.125C148.951 19 148 18.0486 148 16.875V6.75164C148 6.42175 148.077 6.09638 148.224 5.80132L149.684 2.881C149.954 2.34107 150.506 2 151.11 2H161.89C162.494 2 163.046 2.34107 163.316 2.881L164.776 5.80132C164.923 6.09638 165 6.42175 165 6.75164Z" stroke="#E87C3E" stroke-width="2" stroke-linecap="round" stroke-linejoin="round"/>
<path d="M7.72 7.72V6.72C7.16771 6.72 6.72 7.16771 6.72 7.72H7.72ZM7.81562 7.72H8.81562C8.81562 7.16771 8.36791 6.72 7.81562 6.72V7.72ZM13.48 7.72V6.72C12.9277 6.72 12.48 7.16771 12.48 7.72H13.48ZM13.565 7.72H14.565C14.565 7.16771 14.1173 6.72 13.565 6.72V7.72ZM7.81562 7.79687V8.79687C8.36791 8.79687 8.81562 8.34916 8.81562 7.79687H7.81562ZM7.72 7.79687H6.72C6.72 8.34916 7.16771 8.79687 7.72 8.79687V7.79687ZM13.565 7.79687V8.79687C14.1173 8.79687 14.565 8.34916 14.565 7.79687H13.565ZM13.48 7.79687H12.48C12.48 8.34916 12.9277 8.79687 13.48 8.79687V7.79687ZM8.12223 12.9928C7.83155 12.5232 7.21522 12.3782 6.74562 12.6689C6.27603 12.9596 6.13099 13.5759 6.42167 14.0455L8.12223 12.9928ZM14.7783 14.0455C15.069 13.5759 14.924 12.9596 14.4544 12.6689C13.9848 12.3782 13.3684 12.5232 13.0778 12.9928L14.7783 14.0455ZM19.2 10.6C19.2 15.3496 15.3496 19.2 10.6 19.2V21.2C16.4542 21.2 21.2 16.4542 21.2 10.6H19.2ZM10.6 19.2C5.85035 19.2 2 15.3496 2 10.6H0C0 16.4542 4.74578 21.2 10.6 21.2V19.2ZM2 10.6C2 5.85035 5.85035 2 10.6 2V0C4.74578 0 0 4.74578 0 10.6H2ZM10.6 2C15.3496 2 19.2 5.85035 19.2 10.6H21.2C21.2 4.74578 16.4542 0 10.6 0V2ZM7.72 8.72H7.81562V6.72H7.72V8.72ZM13.48 8.72H13.565V6.72H13.48V8.72ZM6.81562 7.72V7.79687H8.81562V7.72H6.81562ZM7.81562 6.79687H7.72V8.79687H7.81562V6.79687ZM8.72 7.79687V7.72H6.72V7.79687H8.72ZM12.565 7.72V7.79687H14.565V7.72H12.565ZM13.565 6.79687H13.48V8.79687H13.565V6.79687ZM14.48 7.79687V7.72H12.48V7.79687H14.48ZM10.6 14.3999C9.57022 14.3999 8.65236 13.8492 8.12223 12.9928L6.42167 14.0455C7.29142 15.4506 8.83147 16.3999 10.6 16.3999V14.3999ZM13.0778 12.9928C12.5476 13.8492 11.6298 14.3999 10.6 14.3999V16.3999C12.3685 16.3999 13.9086 15.4506 14.7783 14.0455L13.0778 12.9928Z" fill="#E87C3E"/>
<path d="M39.4179 17.6054C39.0274 17.9959 39.0274 18.6291 39.4179 19.0196C39.8084 19.4101 40.4416 19.4101 40.8321 19.0196L39.4179 17.6054ZM44.625 13.8125L45.3321 13.1054C44.9416 12.7149 44.3084 12.7149 43.9179 13.1054L44.625 13.8125ZM46.875 16.0625L46.1679 16.7696C46.5584 17.1601 47.1916 17.1601 47.5821 16.7696L46.875 16.0625ZM51.9375 11L52.6446 10.2929C52.2541 9.90237 51.6209 9.90237 51.2304 10.2929L51.9375 11ZM55.7304 16.2071C56.1209 16.5976 56.7541 16.5976 57.1446 16.2071C57.5351 15.8166 57.5351 15.1834 57.1446 14.7929L55.7304 16.2071ZM40.8321 19.0196L45.3321 14.5196L43.9179 13.1054L39.4179 17.6054L40.8321 19.0196ZM43.9179 14.5196L46.1679 16.7696L47.5821 15.3554L45.3321 13.1054L43.9179 14.5196ZM47.5821 16.7696L52.6446 11.7071L51.2304 10.2929L46.1679 15.3554L47.5821 16.7696ZM51.2304 11.7071L55.7304 16.2071L57.1446 14.7929L52.6446 10.2929L51.2304 11.7071ZM42.375 3H53.625V1H42.375V3ZM56 5.375V16.625H58V5.375H56ZM53.625 19H42.375V21H53.625V19ZM40 16.625V5.375H38V16.625H40ZM42.375 19C41.0633 19 40 17.9367 40 16.625H38C38 19.0412 39.9588 21 42.375 21V19ZM56 16.625C56 17.9367 54.9367 19 53.625 19V21C56.0412 21 58 19.0412 58 16.625H56ZM53.625 3C54.9367 3 56 4.06332 56 5.375H58C58 2.95875 56.0412 1 53.625 1V3ZM42.375 1C39.9588 1 38 2.95875 38 5.375H40C40 4.06332 41.0633 3 42.375 3V1ZM44.75 7.0625C44.75 7.4422 44.4422 7.75 44.0625 7.75V9.75C45.5468 9.75 46.75 8.54677 46.75 7.0625H44.75ZM44.0625 7.75C43.6828 7.75 43.375 7.4422 43.375 7.0625H41.375C41.375 8.54677 42.5782 9.75 44.0625 9.75V7.75ZM43.375 7.0625C43.375 6.6828 43.6828 6.375 44.0625 6.375V4.375C42.5782 4.375 41.375 5.57823 41.375 7.0625H43.375ZM44.0625 6.375C44.4422 6.375 44.75 6.6828 44.75 7.0625H46.75C46.75 5.57823 45.5468 4.375 44.0625 4.375V6.375Z" fill="#E87C3E"/>
<path d="M83.513 20.2C83.513 20.2 91.0261 13.5217 91.0261 8.51304C91.0261 4.3637 87.6624 1 83.513 1C79.3637 1 76 4.3637 76 8.51304C76 13.5217 83.513 20.2 83.513 20.2Z" stroke="#E87C3E" stroke-width="2"/>
<path d="M85.9134 8.20015C85.9134 9.52563 84.8388 10.6002 83.5134 10.6002C82.1879 10.6002 81.1134 9.52563 81.1134 8.20015C81.1134 6.87467 82.1879 5.80015 83.5134 5.80015C84.8388 5.80015 85.9134 6.87467 85.9134 8.20015Z" stroke="#E87C3E" stroke-width="2"/>
</svg>
