<svg width="24" height="24" viewBox="0 0 24 24" fill="none" xmlns="http://www.w3.org/2000/svg">
<path d="M17.3445 19.8017L12.2264 14.346C11.7885 14.7465 11.2846 15.0573 10.7404 15.2627C10.1611 15.4839 9.54978 15.595 8.93436 15.5907C8.21159 15.6061 7.49354 15.4634 6.82467 15.1714C6.15581 14.8795 5.55038 14.4445 5.04587 13.8934C4.53289 13.3617 4.12748 12.7239 3.85455 12.0193C3.58161 11.3148 3.44691 10.5582 3.45872 9.79623C3.44751 9.03374 3.58307 8.27687 3.85703 7.57224C4.13099 6.86761 4.53757 6.23012 5.05172 5.69905C5.55054 5.15095 6.1496 4.7175 6.81192 4.42541C7.47425 4.13333 8.18579 3.98883 8.90262 4.00081C9.61828 3.98776 10.3288 4.13176 10.9899 4.42378C11.651 4.71581 12.2485 5.1496 12.7452 5.69818C13.2567 6.23147 13.6609 6.87014 13.9329 7.57517C14.2049 8.2802 14.3391 9.03682 14.3273 9.79889C14.3285 10.4374 14.228 11.0714 14.0299 11.6741C13.8254 12.29 13.5237 12.8643 13.1378 13.3723L18.2985 18.8281C18.3598 18.8875 18.4086 18.96 18.4416 19.041C18.4746 19.1219 18.491 19.2093 18.4898 19.2975C18.4887 19.3921 18.4694 19.4854 18.4332 19.5718C18.397 19.6582 18.3446 19.7358 18.2793 19.7999C18.2177 19.8668 18.1439 19.9196 18.0625 19.9549C17.981 19.9902 17.8936 20.0074 17.8057 20.0053C17.7196 20.0079 17.6341 19.9911 17.5546 19.956C17.4752 19.921 17.4036 19.8683 17.3445 19.8017ZM8.91348 14.233C9.46035 14.2429 10.0033 14.1324 10.5081 13.9084C11.013 13.6844 11.4689 13.3518 11.8472 12.9313C12.2375 12.5231 12.5458 12.0346 12.7534 11.4957C12.9611 10.9568 13.0637 10.3786 13.0551 9.79623C13.0637 9.21382 12.9611 8.63562 12.7535 8.09669C12.5459 7.55777 12.2375 7.06936 11.8472 6.66112C11.4688 6.24073 11.0129 5.90807 10.5081 5.68407C10.0032 5.46007 9.46035 5.34957 8.91348 5.35943C8.36208 5.34904 7.81455 5.45919 7.30476 5.68309C6.79497 5.90699 6.33377 6.23987 5.9497 6.66112C5.55611 7.06744 5.24479 7.5552 5.03491 8.09436C4.82503 8.63352 4.72102 9.21268 4.72928 9.79623C4.72107 10.3798 4.8251 10.9589 5.03498 11.4981C5.24486 12.0373 5.55615 12.525 5.9497 12.9313C6.33377 13.3526 6.79497 13.6855 7.30476 13.9094C7.81455 14.1333 8.36208 14.2434 8.91348 14.233Z" fill="#999999"/>
</svg>
