<svg width="28" height="28" viewBox="0 0 28 28" fill="none" xmlns="http://www.w3.org/2000/svg">
<path d="M14 17.5C15.933 17.5 17.5 15.933 17.5 14C17.5 12.067 15.933 10.5 14 10.5C12.067 10.5 10.5 12.067 10.5 14C10.5 15.933 12.067 17.5 14 17.5Z" stroke="black" stroke-width="2" stroke-miterlimit="10" stroke-linecap="round" stroke-linejoin="round"/>
<path d="M2.3335 15.027V12.9737C2.3335 11.7603 3.32516 10.757 4.55016 10.757C6.66183 10.757 7.52516 9.26367 6.4635 7.432C5.85683 6.382 6.2185 5.017 7.28016 4.41033L9.2985 3.25533C10.2202 2.707 11.4102 3.03367 11.9585 3.95533L12.0868 4.177C13.1368 6.00867 14.8635 6.00867 15.9252 4.177L16.0535 3.95533C16.6018 3.03367 17.7918 2.707 18.7135 3.25533L20.7318 4.41033C21.7935 5.017 22.1552 6.382 21.5485 7.432C20.4868 9.26367 21.3502 10.757 23.4618 10.757C24.6752 10.757 25.6785 11.7487 25.6785 12.9737V15.027C25.6785 16.2403 24.6868 17.2437 23.4618 17.2437C21.3502 17.2437 20.4868 18.737 21.5485 20.5687C22.1552 21.6303 21.7935 22.9837 20.7318 23.5903L18.7135 24.7453C17.7918 25.2937 16.6018 24.967 16.0535 24.0453L15.9252 23.8237C14.8752 21.992 13.1485 21.992 12.0868 23.8237L11.9585 24.0453C11.4102 24.967 10.2202 25.2937 9.2985 24.7453L7.28016 23.5903C6.2185 22.9837 5.85683 21.6187 6.4635 20.5687C7.52516 18.737 6.66183 17.2437 4.55016 17.2437C3.32516 17.2437 2.3335 16.2403 2.3335 15.027Z" stroke="black" stroke-width="2" stroke-miterlimit="10" stroke-linecap="round" stroke-linejoin="round"/>
</svg>
