<svg width="28" height="28" viewBox="0 0 28 28" fill="none" xmlns="http://www.w3.org/2000/svg">
<g id="Icon/Lucide Icon">
<path id="Vector" d="M7.33398 3.92725V17.1911" stroke="white" stroke-width="2" stroke-linecap="round" stroke-linejoin="round"/>
<path id="Vector_2" d="M20.6673 10.5592C22.5083 10.5592 24.0007 9.07458 24.0007 7.24322C24.0007 5.41186 22.5083 3.92725 20.6673 3.92725C18.8264 3.92725 17.334 5.41186 17.334 7.24322C17.334 9.07458 18.8264 10.5592 20.6673 10.5592Z" stroke="white" stroke-width="2" stroke-linecap="round" stroke-linejoin="round"/>
<path id="Vector_3" d="M7.33333 23.8234C9.17428 23.8234 10.6667 22.3387 10.6667 20.5074C10.6667 18.676 9.17428 17.1914 7.33333 17.1914C5.49238 17.1914 4 18.676 4 20.5074C4 22.3387 5.49238 23.8234 7.33333 23.8234Z" stroke="white" stroke-width="2" stroke-linecap="round" stroke-linejoin="round"/>
<path id="Vector_4" d="M20.667 10.5591C20.667 13.1974 19.6134 15.7277 17.7381 17.5933C15.8627 19.4589 13.3192 20.507 10.667 20.507" stroke="white" stroke-width="2" stroke-linecap="round" stroke-linejoin="round"/>
</g>
</svg>
