<svg width="12" height="12" viewBox="0 0 12 12" fill="none" xmlns="http://www.w3.org/2000/svg">
<mask id="mask0_257_10976" style="mask-type:luminance" maskUnits="userSpaceOnUse" x="0" y="0" width="12" height="12">
<path d="M11.8337 0.75H0.166992V11.4396H11.8337V0.75Z" fill="white"/>
</mask>
<g mask="url(#mask0_257_10976)">
<path d="M6.00043 11.4394L5.40252 10.8998C4.37391 9.95563 3.52321 9.1411 2.85043 8.45626C2.2745 7.88141 1.73853 7.26787 1.24627 6.61993C0.899745 6.17285 0.617584 5.67941 0.408018 5.15401C0.249532 4.72947 0.167952 4.28009 0.167101 3.82693C0.156107 3.42008 0.228711 3.0153 0.380419 2.63764C0.532128 2.25997 0.759715 1.91745 1.0491 1.63126C1.33324 1.34342 1.67326 1.11674 2.04824 0.965164C2.42323 0.813585 2.82525 0.740311 3.2296 0.749848C3.76779 0.745749 4.29782 0.881423 4.76785 1.1436C5.25967 1.42437 5.68117 1.81335 6.00043 2.2811C6.34855 1.8094 6.79044 1.41478 7.29835 1.12201C7.74993 0.87534 8.25672 0.747288 8.77127 0.749848C9.17562 0.740311 9.57764 0.813585 9.95263 0.965164C10.3276 1.11674 10.6676 1.34342 10.9518 1.63126C11.2412 1.91745 11.4687 2.25997 11.6205 2.63764C11.7722 3.0153 11.8448 3.42008 11.8338 3.82693C11.8329 4.28009 11.7513 4.72947 11.5929 5.15401C11.3833 5.67941 11.1011 6.17285 10.7546 6.61993C10.2623 7.26787 9.72637 7.88141 9.15043 8.45626C8.47843 9.1411 7.62832 9.95563 6.6001 10.8998L6.00043 11.4394ZM6.00043 10.2873C6.98471 9.38318 7.79457 8.60793 8.43002 7.9616C8.96845 7.4254 9.47488 6.858 9.94669 6.26235C10.267 5.86683 10.5322 5.42961 10.7348 4.96268C10.8806 4.60249 10.9566 4.21785 10.9588 3.82926C10.9691 3.53748 10.9202 3.24663 10.8149 2.97431C10.7097 2.70199 10.5502 2.45386 10.3463 2.24493C10.1411 2.03903 9.8956 1.87768 9.62519 1.77098C9.35479 1.66429 9.06528 1.61454 8.77477 1.62485C8.27382 1.62496 7.78615 1.78588 7.38352 2.08393C6.93436 2.41874 6.57865 2.86322 6.35043 3.37485H5.63585C5.41225 2.86667 5.06147 2.42468 4.61735 2.09151C4.21655 1.78907 3.72821 1.62527 3.2261 1.62485C2.93559 1.61454 2.64608 1.66429 2.37568 1.77098C2.10527 1.87768 1.8598 2.03903 1.6546 2.24493C1.45053 2.45425 1.29104 2.70278 1.18576 2.9755C1.08049 3.24822 1.03161 3.53945 1.0421 3.8316C1.04501 4.22255 1.1216 4.60944 1.26785 4.97201C1.47032 5.44297 1.73541 5.88445 2.05593 6.28451C2.52631 6.8833 3.03528 7.45073 3.5796 7.98318C4.22127 8.62485 5.02821 9.3929 6.00043 10.2873Z" fill="#D9D9D9"/>
</g>
</svg>
