<svg width="12" height="11" viewBox="0 0 12 11" fill="none" xmlns="http://www.w3.org/2000/svg">
<mask id="mask0_289_12502" style="mask-type:luminance" maskUnits="userSpaceOnUse" x="0" y="0" width="12" height="11">
<path d="M11.8337 0H0.166992V10.6896H11.8337V0Z" fill="white"/>
</mask>
<g mask="url(#mask0_289_12502)">
<path d="M6.00043 10.6894L5.40252 10.1498C4.37391 9.20563 3.52321 8.3911 2.85043 7.70626C2.2745 7.13141 1.73853 6.51787 1.24627 5.86993C0.899745 5.42285 0.617584 4.92941 0.408018 4.40401C0.249532 3.97947 0.167952 3.53009 0.167101 3.07693C0.156107 2.67008 0.228711 2.2653 0.380419 1.88764C0.532128 1.50997 0.759715 1.16745 1.0491 0.881265C1.33324 0.593422 1.67326 0.366742 2.04824 0.215164C2.42323 0.0635849 2.82525 -0.00968876 3.2296 -0.00015198C3.76779 -0.00425119 4.29782 0.131423 4.76785 0.393598C5.25967 0.67437 5.68117 1.06335 6.00043 1.5311C6.34855 1.0594 6.79044 0.664781 7.29835 0.372015C7.74993 0.12534 8.25672 -0.00271178 8.77127 -0.00015198C9.17562 -0.00968876 9.57764 0.0635849 9.95263 0.215164C10.3276 0.366742 10.6676 0.593422 10.9518 0.881265C11.2412 1.16745 11.4687 1.50997 11.6205 1.88764C11.7722 2.2653 11.8448 2.67008 11.8338 3.07693C11.8329 3.53009 11.7513 3.97947 11.5929 4.40401C11.3833 4.92941 11.1011 5.42285 10.7546 5.86993C10.2623 6.51787 9.72637 7.13141 9.15043 7.70626C8.47843 8.3911 7.62832 9.20563 6.6001 10.1498L6.00043 10.6894ZM6.00043 9.53735C6.98471 8.63318 7.79457 7.85793 8.43002 7.2116C8.96845 6.6754 9.47488 6.108 9.94669 5.51235C10.267 5.11683 10.5322 4.67961 10.7348 4.21268C10.8806 3.85249 10.9566 3.46785 10.9588 3.07926C10.9691 2.78748 10.9202 2.49663 10.8149 2.22431C10.7097 1.95199 10.5502 1.70386 10.3463 1.49493C10.1411 1.28903 9.8956 1.12768 9.62519 1.02098C9.35479 0.914289 9.06528 0.864539 8.77477 0.874848C8.27382 0.874957 7.78615 1.03588 7.38352 1.33393C6.93436 1.66874 6.57865 2.11322 6.35043 2.62485H5.63585C5.41225 2.11667 5.06147 1.67468 4.61735 1.34151C4.21655 1.03907 3.72821 0.875267 3.2261 0.874848C2.93559 0.864539 2.64608 0.914289 2.37568 1.02098C2.10527 1.12768 1.8598 1.28903 1.6546 1.49493C1.45053 1.70425 1.29104 1.95278 1.18576 2.2255C1.08049 2.49822 1.03161 2.78945 1.0421 3.0816C1.04501 3.47255 1.1216 3.85944 1.26785 4.22201C1.47032 4.69297 1.73541 5.13445 2.05593 5.53451C2.52631 6.1333 3.03528 6.70073 3.5796 7.23318C4.22127 7.87485 5.02821 8.6429 6.00043 9.53735Z" fill="#E87C3E"/>
<path d="M4 0.5L6 2L7 1L9 0.5L10 1L11 2L11.5 3.5L10.5 5L8.5 8L6 10L5 9L3.5 7.5L1.5 6L0.5 4V2.5L1.5 1L2.5 0.5H4Z" fill="#E87C3E"/>
</g>
</svg>
