<svg width="27" height="27" viewBox="0 0 27 27" fill="none" xmlns="http://www.w3.org/2000/svg">
<g id="Icon/Lucide Icon">
<path id="Vector" d="M18.112 9.12744C19.8801 9.12744 21.5758 9.82616 22.826 11.0699C24.0763 12.3136 24.7786 14.0005 24.7786 15.7594V23.4967H20.3342V15.7594C20.3342 15.1731 20.1001 14.6108 19.6833 14.1962C19.2666 13.7816 18.7014 13.5487 18.112 13.5487C17.5226 13.5487 16.9574 13.7816 16.5406 14.1962C16.1239 14.6108 15.8898 15.1731 15.8898 15.7594V23.4967H11.4453V15.7594C11.4453 14.0005 12.1477 12.3136 13.3979 11.0699C14.6482 9.82616 16.3439 9.12744 18.112 9.12744Z" fill="white"/>
<path id="Vector_2" d="M7.00109 10.2324H2.55664V23.4963H7.00109V10.2324Z" fill="white"/>
<path id="Vector_3" d="M4.77886 6.91641C6.00616 6.91641 7.00109 5.92667 7.00109 4.70577C7.00109 3.48486 6.00616 2.49512 4.77886 2.49512C3.55156 2.49512 2.55664 3.48486 2.55664 4.70577C2.55664 5.92667 3.55156 6.91641 4.77886 6.91641Z" fill="white"/>
</g>
</svg>
