<svg width="15" height="15" viewBox="0 0 15 15" fill="none" xmlns="http://www.w3.org/2000/svg">
<g id="&#235;&#143;&#139;&#235;&#179;&#180;&#234;&#184;&#176;">
<path id="search_FILL0_wght400_GRAD0_opsz48" d="M12.2669 12.982L8.43749 9.14697C8.10981 9.42854 7.73283 9.64702 7.32561 9.79134C6.89221 9.94689 6.43482 10.0249 5.97436 10.0219C5.43358 10.0328 4.89634 9.93245 4.39589 9.72722C3.89545 9.52199 3.44247 9.21621 3.06499 8.82882C2.68118 8.45507 2.37785 8.0068 2.17364 7.51153C1.96943 7.01626 1.86865 6.48448 1.87749 5.94884C1.8691 5.41286 1.97052 4.88084 2.1755 4.38554C2.38048 3.89023 2.68468 3.44212 3.06937 3.06882C3.44259 2.68355 3.8908 2.37886 4.38635 2.17355C4.88191 1.96823 5.41428 1.86666 5.95062 1.87508C6.48607 1.86591 7.01768 1.96713 7.51231 2.1724C8.00694 2.37767 8.454 2.6826 8.82562 3.06821C9.20837 3.44307 9.51074 3.89201 9.71426 4.3876C9.91778 4.88318 10.0182 5.41503 10.0094 5.95071C10.0103 6.3995 9.93505 6.84521 9.78686 7.26884C9.63382 7.7018 9.40809 8.10548 9.11937 8.46257L12.9806 12.2976C13.0265 12.3393 13.063 12.3903 13.0877 12.4472C13.1123 12.5041 13.1246 12.5656 13.1237 12.6276C13.1229 12.694 13.1085 12.7596 13.0814 12.8204C13.0543 12.8811 13.0151 12.9356 12.9662 12.9807C12.9202 13.0277 12.865 13.0648 12.804 13.0896C12.7431 13.1145 12.6777 13.1265 12.6119 13.1251C12.5475 13.1269 12.4835 13.1151 12.424 13.0904C12.3646 13.0658 12.311 13.0288 12.2669 12.982ZM5.95874 9.06758C6.36791 9.07455 6.77411 8.99688 7.15184 8.83942C7.52957 8.68197 7.87067 8.44813 8.15374 8.15259C8.44576 7.8656 8.67644 7.52227 8.8318 7.14345C8.98715 6.76463 9.06393 6.35822 9.05749 5.94884C9.06397 5.53945 8.9872 5.13301 8.83184 4.75419C8.67649 4.37536 8.44579 4.03205 8.15374 3.74509C7.87065 3.44958 7.52954 3.21574 7.15181 3.05829C6.77409 2.90083 6.36791 2.82316 5.95874 2.83009C5.54618 2.82279 5.13652 2.90022 4.75509 3.0576C4.37367 3.21499 4.0286 3.44898 3.74124 3.74509C3.44675 4.0307 3.21383 4.37356 3.05679 4.75255C2.89976 5.13154 2.82194 5.53865 2.82812 5.94884C2.82197 6.35902 2.89981 6.76614 3.05684 7.14513C3.21388 7.52411 3.44678 7.86696 3.74124 8.15259C4.0286 8.4487 4.37367 8.68269 4.75509 8.84007C5.13652 8.99746 5.54618 9.07489 5.95874 9.06758Z" fill="white"/>
</g>
</svg>
