<svg width="10" height="14" viewBox="0 0 10 14" fill="none" xmlns="http://www.w3.org/2000/svg">
<rect width="10" height="14" fill="white"/>
<g id="&#235;&#169;&#148;&#236;&#157;&#184;">
<path d="M-1911 -1710C-1911 -1711.1 -1910.1 -1712 -1909 -1712H26966C26967.1 -1712 26968 -1711.1 26968 -1710V4859C26968 4860.1 26967.1 4861 26966 4861H-1909C-1910.1 4861 -1911 4860.1 -1911 4859V-1710Z" fill="#F4F4F4"/>
<g id="&#235;&#169;&#148;&#236;&#157;&#184; &#237;&#142;&#152;&#236;&#157;&#180;&#236;&#167;&#128;" clip-path="url(#clip0_254_5566)">
<rect width="1920" height="2759" transform="translate(-1146 -632)" fill="white"/>
<rect id="Rectangle 221" x="-506.5" y="-456.5" width="680" height="2586" stroke="#C7C7C7"/>
<g id="&#235;&#169;&#148;&#236;&#157;&#184; ">
<g id="Group 3870">
<rect id="Rectangle 38" x="-480.5" y="-48.5" width="630" height="544" rx="27.5" stroke="#D9D9D9"/>
<g id="Group 3869">
<path id="&#237;&#140;&#168;&#236;&#138;&#164; 22" d="M0.937504 13.75C0.814713 13.7504 0.693139 13.7256 0.580275 13.6773C0.467411 13.6289 0.365647 13.5579 0.281255 13.4687C0.192059 13.3843 0.121089 13.2826 0.0727189 13.1697C0.0243486 13.0569 -0.000397728 12.9353 4.83367e-06 12.8125V4.85937C-0.000397728 4.73658 0.0243486 4.61501 0.0727189 4.50214C0.121089 4.38928 0.192059 4.28752 0.281255 4.20312C0.365647 4.11393 0.467411 4.04296 0.580275 3.99459C0.693139 3.94622 0.814713 3.92147 0.937504 3.92187H3.57813V4.85937H0.937504V12.8125H9.0625V4.85937H6.39063V3.92187H9.0625C9.30924 3.9279 9.54422 4.0286 9.71874 4.20313C9.89327 4.37766 9.99398 4.61263 10 4.85937V12.8125C9.99398 13.0592 9.89327 13.2942 9.71874 13.4687C9.54422 13.6433 9.30924 13.744 9.0625 13.75H0.937504ZM4.51563 8.95312V1.8125L3.14063 3.1875L2.46875 2.51562L4.98438 0L7.5 2.51562L6.82813 3.1875L5.45313 1.8125V8.95312H4.51563Z" fill="#D9D9D9"/>
</g>
</g>
</g>
</g>
<path d="M-1909 -1711H26966V-1713H-1909V-1711ZM26967 -1710V4859H26969V-1710H26967ZM26966 4860H-1909V4862H26966V4860ZM-1910 4859V-1710H-1912V4859H-1910ZM-1909 4860C-1909.55 4860 -1910 4859.55 -1910 4859H-1912C-1912 4860.66 -1910.66 4862 -1909 4862V4860ZM26967 4859C26967 4859.55 26966.6 4860 26966 4860V4862C26967.7 4862 26969 4860.66 26969 4859H26967ZM26966 -1711C26966.6 -1711 26967 -1710.55 26967 -1710H26969C26969 -1711.66 26967.7 -1713 26966 -1713V-1711ZM-1909 -1713C-1910.66 -1713 -1912 -1711.66 -1912 -1710H-1910C-1910 -1710.55 -1909.55 -1711 -1909 -1711V-1713Z" fill="black" fill-opacity="0.1"/>
</g>
<defs>
<clipPath id="clip0_254_5566">
<rect width="1920" height="2759" fill="white" transform="translate(-1146 -632)"/>
</clipPath>
</defs>
</svg>
